<svg xmlns="http://www.w3.org/2000/svg" width="1200" height="630" viewBox="0 0 1200 630">
  <defs>
    <linearGradient id="bg" x1="0" x2="1" y1="0" y2="1">
      <stop offset="0" stop-color="#081022"/>
      <stop offset="1" stop-color="#101a35"/>
    </linearGradient>
    <radialGradient id="glow" cx="30%" cy="10%" r="70%">
      <stop offset="0" stop-color="#7dd3fc" stop-opacity=".28"/>
      <stop offset=".6" stop-color="#22d3ee" stop-opacity=".10"/>
      <stop offset="1" stop-color="#000" stop-opacity="0"/>
    </radialGradient>
    <radialGradient id="glow2" cx="80%" cy="0%" r="65%">
      <stop offset="0" stop-color="#a78bfa" stop-opacity=".20"/>
      <stop offset="1" stop-color="#000" stop-opacity="0"/>
    </radialGradient>

    <filter id="soft" x="-20%" y="-20%" width="140%" height="140%">
      <feGaussianBlur stdDeviation="10" result="b"/>
      <feColorMatrix in="b" type="matrix"
        values="1 0 0 0 0
                0 1 0 0 0
                0 0 1 0 0
                0 0 0 .55 0" result="c"/>
      <feMerge>
        <feMergeNode in="c"/>
        <feMergeNode in="SourceGraphic"/>
      </feMerge>
    </filter>

    <filter id="shadow" x="-30%" y="-30%" width="160%" height="160%">
      <feDropShadow dx="0" dy="16" stdDeviation="18" flood-color="#000" flood-opacity=".40"/>
    </filter>

    <linearGradient id="liquidA" x1="0" x2="0" y1="0" y2="1">
      <stop offset="0" stop-color="#7dd3fc"/>
      <stop offset="1" stop-color="#0284c7"/>
    </linearGradient>
    <linearGradient id="liquidB" x1="0" x2="0" y1="0" y2="1">
      <stop offset="0" stop-color="#a78bfa"/>
      <stop offset="1" stop-color="#6d28d9"/>
    </linearGradient>
    <linearGradient id="liquidC" x1="0" x2="0" y1="0" y2="1">
      <stop offset="0" stop-color="#22d3ee"/>
      <stop offset="1" stop-color="#0ea5e9"/>
    </linearGradient>

    <style>
      .t1{font: 800 56px system-ui,-apple-system,Segoe UI,Roboto,Arial,sans-serif; letter-spacing:.2px; fill: rgba(255,255,255,.95);}
      .t2{font: 500 24px system-ui,-apple-system,Segoe UI,Roboto,Arial,sans-serif; fill: rgba(255,255,255,.78);}
      .mono{font: 700 22px ui-monospace,SFMono-Regular,Menlo,Monaco,Consolas,"Liberation Mono",monospace; fill: rgba(255,255,255,.85);}
      .line{stroke: rgba(255,255,255,.22); stroke-width:2}
    </style>
  </defs>

  <rect width="1200" height="630" fill="url(#bg)"/>
  <rect width="1200" height="630" fill="url(#glow)"/>
  <rect width="1200" height="630" fill="url(#glow2)"/>

  <g opacity=".20">
    <path class="line" d="M0 130 H1200"/>
    <path class="line" d="M0 260 H1200"/>
    <path class="line" d="M0 390 H1200"/>
    <path class="line" d="M0 520 H1200"/>
    <path class="line" d="M200 0 V630"/>
    <path class="line" d="M400 0 V630"/>
    <path class="line" d="M600 0 V630"/>
    <path class="line" d="M800 0 V630"/>
    <path class="line" d="M1000 0 V630"/>
  </g>

  <g filter="url(#shadow)">
    <rect x="64" y="56" rx="28" ry="28" width="1072" height="518" fill="rgba(255,255,255,.06)" stroke="rgba(255,255,255,.16)"/>
  </g>

  <g transform="translate(110,130)">
    <text class="t1" x="0" y="0">E-Liquid Mischrechner</text>
    <text class="t2" x="0" y="46">Nikotin verdünnen • mg/ml → ml Liquid + ml Base</text>

    <g transform="translate(0,92)" opacity=".95">
      <rect x="0" y="0" width="520" height="64" rx="16" fill="rgba(0,0,0,.20)" stroke="rgba(255,255,255,.14)"/>
      <text class="mono" x="18" y="41">Beispiel: 20 mg/ml → 6 mg/ml</text>
    </g>

    <g transform="translate(0,174)" opacity=".95">
      <rect x="0" y="0" width="520" height="94" rx="18" fill="rgba(0,0,0,.18)" stroke="rgba(255,255,255,.14)"/>
      <text class="mono" x="18" y="40">Verhältnis: 1 : 2.33</text>
      <text class="mono" x="18" y="74">120 ml: 36 ml + 84 ml</text>
    </g>

    <text class="t2" x="0" y="318" opacity=".88">Verrückter Professor-Modus: ON 🧪⚡</text>
    <text class="t2" x="0" y="354" opacity=".72">4rjn.github.io/eliquid</text>
  </g>

  <g transform="translate(760,120)">
    <circle cx="170" cy="120" r="64" fill="rgba(255,255,255,.92)"/>
    <g>
      <circle cx="142" cy="118" r="20" fill="rgba(0,0,0,.25)" stroke="rgba(255,255,255,.55)" stroke-width="3"/>
      <circle cx="198" cy="118" r="20" fill="rgba(0,0,0,.25)" stroke="rgba(255,255,255,.55)" stroke-width="3"/>
      <rect x="161" y="114" width="18" height="8" rx="4" fill="rgba(255,255,255,.55)"/>
      <circle cx="142" cy="118" r="10" fill="url(#liquidA)" opacity=".9"/>
      <circle cx="198" cy="118" r="10" fill="url(#liquidB)" opacity=".9"/>
    </g>
    <path d="M148 148 Q170 166 192 148" fill="none" stroke="rgba(0,0,0,.45)" stroke-width="5" stroke-linecap="round"/>
    <g filter="url(#soft)">
      <path d="M120 70 Q170 10 220 70" fill="none" stroke="rgba(255,255,255,.75)" stroke-width="6" stroke-linecap="round"/>
      <path d="M98 92 Q170 28 242 92" fill="none" stroke="rgba(255,255,255,.55)" stroke-width="5" stroke-linecap="round"/>
      <path d="M134 44 L118 18" stroke="url(#liquidC)" stroke-width="6" stroke-linecap="round"/>
      <path d="M206 44 L222 18" stroke="url(#liquidB)" stroke-width="6" stroke-linecap="round"/>
      <path d="M170 36 L170 10" stroke="url(#liquidA)" stroke-width="6" stroke-linecap="round"/>
    </g>

    <path d="M110 180 Q170 150 230 180 L250 330 Q170 380 90 330 Z"
          fill="rgba(255,255,255,.85)" stroke="rgba(255,255,255,.35)"/>
    <path d="M170 178 V340" stroke="rgba(0,0,0,.12)" stroke-width="6"/>

    <path d="M110 220 Q60 240 70 300" fill="none" stroke="rgba(255,255,255,.75)" stroke-width="18" stroke-linecap="round"/>
    <path d="M230 220 Q280 240 270 300" fill="none" stroke="rgba(255,255,255,.75)" stroke-width="18" stroke-linecap="round"/>

    <g filter="url(#shadow)">
      <path d="M56 298 h56 v18 l20 54 q-48 28-96 0 l20-54z"
            fill="rgba(0,0,0,.22)" stroke="rgba(255,255,255,.25)"/>
      <path d="M62 318 h44 v8 l16 40 q-38 20-76 0 l16-40z"
            fill="url(#liquidA)" opacity=".95"/>
      <circle cx="86" cy="318" r="6" fill="rgba(255,255,255,.65)" opacity=".7"/>

      <path d="M272 298 h56 v18 l20 54 q-48 28-96 0 l20-54z"
            fill="rgba(0,0,0,.22)" stroke="rgba(255,255,255,.25)"/>
      <path d="M278 318 h44 v8 l16 40 q-38 20-76 0 l16-40z"
            fill="url(#liquidB)" opacity=".95"/>
      <circle cx="302" cy="318" r="6" fill="rgba(255,255,255,.65)" opacity=".7"/>
    </g>

    <g filter="url(#soft)">
      <path d="M170 250 l-18 34 h20 l-20 42 l44-62 h-22 z" fill="url(#liquidC)" opacity=".95"/>
      <circle cx="146" cy="270" r="8" fill="url(#liquidA)" opacity=".65"/>
      <circle cx="214" cy="268" r="10" fill="url(#liquidB)" opacity=".55"/>
      <circle cx="190" cy="292" r="7" fill="url(#liquidC)" opacity=".55"/>
    </g>
  </g>
</svg>
