<svg xmlns="http://www.w3.org/2000/svg" width="512" height="512" viewBox="0 0 512 512">
  <defs>
    <linearGradient id="bg" x1="0" x2="1" y1="0" y2="1">
      <stop offset="0" stop-color="#081022"/>
      <stop offset="1" stop-color="#101a35"/>
    </linearGradient>
    <radialGradient id="glow" cx="30%" cy="15%" r="70%">
      <stop offset="0" stop-color="#7dd3fc" stop-opacity=".35"/>
      <stop offset="1" stop-color="#000" stop-opacity="0"/>
    </radialGradient>
    <linearGradient id="liqA" x1="0" x2="0" y1="0" y2="1">
      <stop offset="0" stop-color="#7dd3fc"/>
      <stop offset="1" stop-color="#0284c7"/>
    </linearGradient>
    <linearGradient id="liqB" x1="0" x2="0" y1="0" y2="1">
      <stop offset="0" stop-color="#a78bfa"/>
      <stop offset="1" stop-color="#6d28d9"/>
    </linearGradient>
  </defs>

  <rect width="512" height="512" rx="112" fill="url(#bg)"/>
  <rect width="512" height="512" rx="112" fill="url(#glow)"/>

  <circle cx="256" cy="230" r="92" fill="rgba(255,255,255,.92)"/>
  <path d="M160 170 Q256 70 352 170" fill="none" stroke="rgba(255,255,255,.7)" stroke-width="14" stroke-linecap="round"/>
  <path d="M142 206 Q256 110 370 206" fill="none" stroke="rgba(255,255,255,.45)" stroke-width="12" stroke-linecap="round"/>

  <circle cx="220" cy="228" r="28" fill="rgba(0,0,0,.25)" stroke="rgba(255,255,255,.55)" stroke-width="5"/>
  <circle cx="292" cy="228" r="28" fill="rgba(0,0,0,.25)" stroke="rgba(255,255,255,.55)" stroke-width="5"/>
  <rect x="246" y="222" width="20" height="12" rx="6" fill="rgba(255,255,255,.55)"/>
  <circle cx="220" cy="228" r="14" fill="url(#liqA)" opacity=".95"/>
  <circle cx="292" cy="228" r="14" fill="url(#liqB)" opacity=".95"/>

  <path d="M214 270 Q256 302 298 270" fill="none" stroke="rgba(0,0,0,.45)" stroke-width="10" stroke-linecap="round"/>

  <path d="M186 330 h140 v28 l44 98 q-112 70-228 0 l44-98z"
        fill="rgba(0,0,0,.20)" stroke="rgba(255,255,255,.22)" stroke-width="4"/>
  <path d="M202 360 h108 v16 l34 74 q-88 44-176 0 l34-74z"
        fill="url(#liqA)" opacity=".92"/>
  <circle cx="250" cy="362" r="10" fill="rgba(255,255,255,.7)" opacity=".6"/>
  <circle cx="308" cy="388" r="9" fill="rgba(255,255,255,.7)" opacity=".45"/>
</svg>
